<?xml version="1.0" standalone="no"?><!DOCTYPE svg PUBLIC "-//W3C//DTD SVG 1.1//EN" "http://www.w3.org/Graphics/SVG/1.1/DTD/svg11.dtd"><svg t="1663569610849" class="icon" viewBox="0 0 1024 1024" version="1.1" xmlns="http://www.w3.org/2000/svg" p-id="3081" xmlns:xlink="http://www.w3.org/1999/xlink" width="20" height="20"><path d="M994.709333 467.093333l-197.013333 422.506667c-19.797333 42.432-70.208 60.8-112.64 41.002667l-115.690667-53.952c-8.426667-2.858667-14.570667-10.581333-14.570667-19.968 0-11.797333 9.557333-21.333333 21.333333-21.333333 3.648 0 6.912 1.152 9.92 2.773333l0.192-0.362667 116.736 54.421333c21.205333 9.898667 46.442667 0.725333 56.32-20.501333l197.013333-422.506667c9.898667-21.226667 0.704-46.421333-20.501333-56.32l-146.325333-68.245333c0 0-21.994667-7.594667-21.994667-23.936 0-11.776 9.536-21.333333 21.333333-21.333333 3.776 0 7.146667 1.258667 10.218667 2.965333l154.688 72.128C996.117333 374.229333 1014.485333 424.661333 994.709333 467.093333zM618.794667 768l-512 0c-47.125333 0-85.333333-38.208-85.333333-85.333333L21.461333 170.666667c0-47.125333 38.208-85.333333 85.333333-85.333333l512 0c47.125333 0 85.333333 38.208 85.333333 85.333333l0 512C704.128 729.792 665.92 768 618.794667 768zM384.128 554.666667l0-21.333333 24.704-9.984c12.373333-9.941333 43.626667-39.402667 43.626667-39.402667l0.853333-4.181333c6.506667-32.234667 15.68-85.354667 15.68-102.485333 0-69.12-32.746667-99.968-106.218667-99.968s-106.218667 30.826667-106.218667 99.968c0 18.602667 9.621333 72.682667 15.68 102.421333l0.853333 5.226667c6.976 7.018667 26.453333 25.706667 43.818667 37.717333L341.461333 533.333333l0 21.333333c-0.170667-1.728 0 42.666667 0 42.666667 0 34.496-23.573333 44.458667-55.893333 44.458667-0.021333 0-0.042667 0-0.064 0-72.490667 2.837333-83.776 26.730667-86.314667 29.504C196.906667 674.688 194.410667 717.824 191.957333 725.333333l341.717333 0c-2.410667-7.488-4.8-50.410667-7.402667-54.293333-1.002667-1.194667-10.517333-26.005333-84.544-29.205333-34.005333 0-57.6-9.984-57.6-44.501333C384.128 597.333333 384.512 551.658667 384.128 554.666667zM661.461333 170.666667c0-23.552-19.114667-42.666667-42.666667-42.666667l-512 0c-23.552 0-42.666667 19.114667-42.666667 42.666667l0 512c0 23.552 19.114667 42.666667 42.666667 42.666667l38.506667 0c7.445333-13.738667 11.370667-67.157333 19.008-78.634667 0 0 13.290667-43.477333 117.952-47.552 10.666667 0 16-6.677333 16-16.917333 0-8.256 0-14.784 0-14.784 0-2.069333-0.341333-3.904-0.448-5.909333-9.301333-7.402667-11.498667-10.218667-27.626667-23.658667 0 0-35.712-23.381333-39.701333-49.642667 0 0-16.533333-81.066667-16.533333-110.933333 0-73.6 32.853333-142.634667 148.885333-142.634667 114.453333 0 148.885333 69.013333 148.885333 142.634667 0 29.141333-16.533333 110.933333-16.533333 110.933333-3.328 24.874667-39.701333 49.642667-39.701333 49.642667-14.464 13.418667-21.013333 19.072-29.312 24.490667-0.064 1.728-0.384 3.306667-0.384 5.077333 0 0 0 6.549333 0 14.784 0 10.218667 5.333333 16.917333 16 16.917333 106.24 4.565333 119.552 47.552 119.552 47.552 7.616 11.456 11.562667 64.896 19.029333 78.634667l38.485333 0c23.552 0 42.666667-19.114667 42.666667-42.666667L661.525333 170.666667z" p-id="3082"></path></svg>