<?xml version="1.0" standalone="no"?><!DOCTYPE svg PUBLIC "-//W3C//DTD SVG 1.1//EN" "http://www.w3.org/Graphics/SVG/1.1/DTD/svg11.dtd"><svg t="1663569468471" class="icon" viewBox="0 0 1024 1024" version="1.1" xmlns="http://www.w3.org/2000/svg" p-id="1931" xmlns:xlink="http://www.w3.org/1999/xlink" width="20" height="20"><path d="M343.808 313.770667c0-92.16 75.434667-167.125333 168.192-167.125334 92.757333 0 168.192 74.965333 168.192 167.125334 0 92.117333-75.434667 167.082667-168.192 167.082666-92.757333 0-168.192-74.965333-168.192-167.082666z m-61.696 0c0 125.866667 103.125333 228.394667 229.888 228.394666 126.72 0 229.845333-102.485333 229.845333-228.394666C741.845333 187.818667 638.72 85.333333 512 85.333333 385.28 85.333333 282.112 187.818667 282.112 313.770667z m186.282667 624.256c14.293333 0.426667 28.842667 0.64 43.605333 0.64 146.517333 0 341.333333-16.256 341.333333-156.586667 0-157.44-256.938667-157.44-341.333333-157.44-146.517333 0-341.333333 16.213333-341.333333 156.586667 0 42.026667 19.626667 98.730667 113.365333 130.261333 16.170667 5.546667 33.621333-3.2 39.082667-19.2a30.549333 30.549333 0 0 0-19.328-38.784c-64.085333-21.589333-71.466667-51.584-71.466667-72.277333 0-63.274667 94.122667-95.36 279.68-95.36 185.6 0 279.68 32.426667 279.68 96.213333 0 63.232-94.122667 95.274667-279.68 95.274667-14.165333 0-28.16-0.170667-41.856-0.554667-16.469333 0.128-31.146667 12.842667-31.658667 29.738667a30.592 30.592 0 0 0 29.866667 31.488z" fill="#222327" p-id="1932"></path></svg>