<svg xmlns="http://www.w3.org/2000/svg" xmlns:xlink="http://www.w3.org/1999/xlink" viewBox="0 0 193.95 143.37"><defs><style>.cls-1{fill:#d4f1f3;}.cls-2{fill:#c7d8fd;}.cls-3{fill:#fce088;}.cls-4{fill:#6179ef;}.cls-5{fill:#f1f6ff;}.cls-6{fill:#d0e2ff;}.cls-7{fill:url(#未命名的渐变_3);}.cls-8{fill:#0b1066;isolation:isolate;opacity:0.19;}.cls-9{fill:#99a2eb;}.cls-10,.cls-14{fill:#fff;}.cls-11{fill:#b4d1ff;}.cls-12{fill:#f2f5f9;}.cls-13{fill:none;}.cls-13,.cls-14{stroke:#f5634a;}.cls-15{fill:url(#未命名的渐变_3-2);}.cls-16{fill:#856cf2;}.cls-17{fill:#f9bc00;}.cls-18{fill:#53c8ce;}</style><linearGradient id="未命名的渐变_3" x1="-1.85" y1="169.97" x2="-1.58" y2="169.97" gradientTransform="matrix(551.78, 0, 0, -30.53, 1037.72, 5316.65)" gradientUnits="userSpaceOnUse"><stop offset="0" stop-color="#405ab1"/><stop offset="1" stop-color="#0b1066"/></linearGradient><linearGradient id="未命名的渐变_3-2" x1="-2.59" y1="167.78" x2="-2.5" y2="167.51" gradientTransform="matrix(213.51, 0, 0, -354.62, 681.34, 59532.88)" xlink:href="#未命名的渐变_3"/></defs><g id="图层_2" data-name="图层 2"><g id="图层_1-2" data-name="图层 1"><g id="后台服务"><path id="路径" class="cls-1" d="M180.93,28.32,162.61,10a.46.46,0,0,0-.65,0L143.65,28.32a.46.46,0,0,0,0,.65L162,47.29a.46.46,0,0,0,.65,0L180.93,29A.46.46,0,0,0,180.93,28.32Z"/><path id="路径-2" data-name="路径" class="cls-2" d="M193.81,135.64l-6.93-6.94a.47.47,0,0,0-.66,0l-6.94,6.94a.46.46,0,0,0,0,.65l6.94,6.94a.47.47,0,0,0,.66,0l6.93-6.94A.44.44,0,0,0,193.81,135.64Z"/><path id="路径-3" data-name="路径" class="cls-2" d="M19,89.08l-3.49-3.49a.22.22,0,0,0-.3,0l-3.49,3.49a.22.22,0,0,0,0,.3l3.49,3.49a.22.22,0,0,0,.3,0L19,89.38A.22.22,0,0,0,19,89.08Z"/><path id="路径-4" data-name="路径" class="cls-3" d="M74.92,9.58,65.4.06a.22.22,0,0,0-.3,0L55.58,9.58a.22.22,0,0,0,0,.3L65.1,19.4a.22.22,0,0,0,.3,0l9.52-9.52A.22.22,0,0,0,74.92,9.58Z"/><g id="编组"><path id="路径-5" data-name="路径" class="cls-4" d="M144.6,47.54H39.94A3.93,3.93,0,0,0,36,51.46v66.69a3.92,3.92,0,0,0,3.93,3.92H77.3v3.83h29.93v-3.83H144.6a3.92,3.92,0,0,0,3.93-3.92V51.46A3.93,3.93,0,0,0,144.6,47.54Z"/><path id="路径-6" data-name="路径" class="cls-5" d="M143,116.82H41.49a.25.25,0,0,1-.24-.25V53.05a.25.25,0,0,1,.24-.25H143a.25.25,0,0,1,.25.25v63.52A.25.25,0,0,1,143,116.82Z"/><rect id="矩形" class="cls-6" x="108.61" y="62.51" width="4" height="8.58"/><rect id="矩形-2" data-name="矩形" class="cls-6" x="115.24" y="62.51" width="21.55" height="1.37"/><rect id="矩形-3" data-name="矩形" class="cls-6" x="115.24" y="64.92" width="21.55" height="1.37"/><rect id="矩形-4" data-name="矩形" class="cls-6" x="115.24" y="67.32" width="21.55" height="1.37"/><rect id="矩形-5" data-name="矩形" class="cls-6" x="115.24" y="69.73" width="21.55" height="1.37"/><rect id="矩形-6" data-name="矩形" class="cls-6" x="108.61" y="74.29" width="4" height="8.58"/><rect id="矩形-7" data-name="矩形" class="cls-6" x="115.24" y="74.29" width="21.55" height="1.37"/><rect id="矩形-8" data-name="矩形" class="cls-6" x="115.24" y="76.69" width="21.55" height="1.37"/><rect id="矩形-9" data-name="矩形" class="cls-6" x="115.24" y="79.1" width="21.55" height="1.37"/><rect id="矩形-10" data-name="矩形" class="cls-6" x="115.24" y="81.5" width="21.55" height="1.37"/><rect id="矩形-11" data-name="矩形" class="cls-6" x="108.61" y="86.16" width="4" height="8.58"/><rect id="矩形-12" data-name="矩形" class="cls-6" x="115.24" y="86.16" width="21.55" height="1.37"/><rect id="矩形-13" data-name="矩形" class="cls-6" x="115.24" y="88.56" width="21.55" height="1.37"/><rect id="矩形-14" data-name="矩形" class="cls-6" x="115.24" y="90.97" width="21.55" height="1.37"/><rect id="矩形-15" data-name="矩形" class="cls-6" x="115.24" y="93.37" width="21.55" height="1.37"/><path id="路径-7" data-name="路径" class="cls-6" d="M96.92,68.63a9.87,9.87,0,0,0-1.22-.09,9.58,9.58,0,0,0-9.59,9.58,9.69,9.69,0,0,0,.35,2.55l8.42-3.26Z"/><path id="路径-8" data-name="路径" class="cls-6" d="M98.8,69.07l-2.27,9.77-9.37,3.63A9.58,9.58,0,1,0,98.8,69.07Z"/><rect id="矩形-16" data-name="矩形" class="cls-6" x="75.1" y="65.52" width="3.98" height="27.28"/><rect id="矩形-17" data-name="矩形" class="cls-6" x="69.66" y="65.52" width="3.98" height="27.28"/><rect id="矩形-18" data-name="矩形" class="cls-6" x="64.23" y="65.52" width="3.98" height="27.28"/><rect id="矩形-19" data-name="矩形" class="cls-6" x="58.79" y="65.52" width="3.98" height="27.28"/><rect id="矩形-20" data-name="矩形" class="cls-6" x="53.36" y="82.21" width="3.98" height="10.59"/><ellipse id="椭圆形" class="cls-6" cx="50.45" cy="75.05" rx="5.56" ry="5.56" transform="translate(-24.88 25.02) rotate(-22.5)"/><path id="路径-9" data-name="路径" class="cls-6" d="M66.33,98V100a3.67,3.67,0,0,1,3,3h2A5.6,5.6,0,0,0,66.33,98Z"/><path id="路径-10" data-name="路径" class="cls-6" d="M65,100V98a5.63,5.63,0,0,0-4.92,4.92h2A3.68,3.68,0,0,1,65,100Z"/><path id="路径-11" data-name="路径" class="cls-6" d="M62.07,104.21h-2A5.61,5.61,0,0,0,65,109.13v-1.95A3.68,3.68,0,0,1,62.07,104.21Z"/><path id="路径-12" data-name="路径" class="cls-6" d="M66.33,107.18v1.95a5.6,5.6,0,0,0,4.92-4.92h-2A3.67,3.67,0,0,1,66.33,107.18Z"/><rect id="矩形-21" data-name="矩形" class="cls-6" x="63.51" y="102.61" width="4.36" height="1.91"/><path id="路径-13" data-name="路径" class="cls-6" d="M51.16,98V100a3.69,3.69,0,0,1,3,3h2A5.62,5.62,0,0,0,51.16,98Z"/><path id="路径-14" data-name="路径" class="cls-6" d="M49.87,100V98A5.63,5.63,0,0,0,45,102.93H46.9A3.68,3.68,0,0,1,49.87,100Z"/><path id="路径-15" data-name="路径" class="cls-6" d="M46.9,104.21H45a5.62,5.62,0,0,0,4.92,4.92v-1.95A3.68,3.68,0,0,1,46.9,104.21Z"/><path id="路径-16" data-name="路径" class="cls-6" d="M51.16,107.18v1.95a5.62,5.62,0,0,0,4.93-4.92h-2A3.69,3.69,0,0,1,51.16,107.18Z"/><rect id="矩形-22" data-name="矩形" class="cls-6" x="48.34" y="102.61" width="4.36" height="1.91"/><path id="路径-17" data-name="路径" class="cls-6" d="M81.46,98V100a3.69,3.69,0,0,1,3,3h2A5.62,5.62,0,0,0,81.46,98Z"/><path id="路径-18" data-name="路径" class="cls-6" d="M80.17,100V98a5.63,5.63,0,0,0-4.92,4.92h2A3.68,3.68,0,0,1,80.17,100Z"/><path id="路径-19" data-name="路径" class="cls-6" d="M77.2,104.21h-2a5.62,5.62,0,0,0,4.92,4.92v-1.95A3.68,3.68,0,0,1,77.2,104.21Z"/><path id="路径-20" data-name="路径" class="cls-6" d="M81.46,107.18v1.95a5.62,5.62,0,0,0,4.93-4.92h-2A3.69,3.69,0,0,1,81.46,107.18Z"/><rect id="矩形-23" data-name="矩形" class="cls-6" x="78.64" y="102.61" width="4.36" height="1.91"/><path id="路径-21" data-name="路径" class="cls-6" d="M96.49,98V100a3.67,3.67,0,0,1,3,3h2A5.6,5.6,0,0,0,96.49,98Z"/><path id="路径-22" data-name="路径" class="cls-6" d="M90.28,102.93h2a3.68,3.68,0,0,1,3-3V98A5.62,5.62,0,0,0,90.28,102.93Z"/><path id="路径-23" data-name="路径" class="cls-6" d="M92.23,104.21h-2a5.61,5.61,0,0,0,4.92,4.92v-1.95A3.68,3.68,0,0,1,92.23,104.21Z"/><path id="路径-24" data-name="路径" class="cls-6" d="M96.49,107.18v1.95a5.6,5.6,0,0,0,4.92-4.92h-2A3.67,3.67,0,0,1,96.49,107.18Z"/><rect id="矩形-24" data-name="矩形" class="cls-6" x="93.67" y="102.61" width="4.36" height="1.91"/><path id="路径-25" data-name="路径" class="cls-6" d="M111.62,98V100a3.69,3.69,0,0,1,3,3h2A5.62,5.62,0,0,0,111.62,98Z"/><path id="路径-26" data-name="路径" class="cls-6" d="M110.33,100V98a5.63,5.63,0,0,0-4.92,4.92h2A3.68,3.68,0,0,1,110.33,100Z"/><path id="路径-27" data-name="路径" class="cls-6" d="M107.36,104.21h-2a5.62,5.62,0,0,0,4.92,4.92v-1.95A3.68,3.68,0,0,1,107.36,104.21Z"/><path id="路径-28" data-name="路径" class="cls-6" d="M111.62,107.18v1.95a5.62,5.62,0,0,0,4.93-4.92h-2A3.69,3.69,0,0,1,111.62,107.18Z"/><rect id="矩形-25" data-name="矩形" class="cls-6" x="108.8" y="102.61" width="4.36" height="1.91"/><path id="路径-29" data-name="路径" class="cls-7" d="M166.6,129.26H152.44a7.29,7.29,0,0,0,3.29-6.1H28.49a7.28,7.28,0,0,0,3.3,6.1H17.62a1.14,1.14,0,1,0,0,2.27h149a1.14,1.14,0,1,0,0-2.27Z"/></g><g id="编组-2" data-name="编组"><path id="路径-30" data-name="路径" class="cls-8" d="M95.65,86.9H19.14A1.18,1.18,0,0,1,18,85.72V28.48a1.18,1.18,0,0,1,1.18-1.18H95.65a1.18,1.18,0,0,1,1.18,1.18V85.72A1.17,1.17,0,0,1,95.65,86.9Z"/><path id="路径-31" data-name="路径" class="cls-5" d="M93,83.53H19.15A1.18,1.18,0,0,1,18,82.35V28.48a1.18,1.18,0,0,1,1.19-1.18H93a1.18,1.18,0,0,1,1.18,1.18V82.35A1.18,1.18,0,0,1,93,83.53Z"/><path id="路径-32" data-name="路径" class="cls-9" d="M94.14,37H18V28.48a1.18,1.18,0,0,1,1.18-1.18H93a1.18,1.18,0,0,1,1.18,1.18Z"/><circle id="椭圆形-2" data-name="椭圆形" class="cls-10" cx="23.49" cy="32.45" r="2.04"/><circle id="椭圆形-3" data-name="椭圆形" class="cls-10" cx="29.9" cy="32.45" r="2.04"/><circle id="椭圆形-4" data-name="椭圆形" class="cls-10" cx="36.18" cy="32.45" r="2.04"/><g id="矩形-26" data-name="矩形"><rect class="cls-11" x="22.21" y="45.47" width="18.34" height="2.66"/><rect class="cls-11" x="22.21" y="68.82" width="18.34" height="2.66"/><rect class="cls-11" x="22.21" y="52.99" width="15.09" height="2.66"/><rect class="cls-11" x="22.21" y="60.47" width="15.09" height="2.66"/><rect class="cls-11" x="71.34" y="45.47" width="18.34" height="2.66"/><rect class="cls-11" x="71.34" y="68.82" width="18.34" height="2.66"/><rect class="cls-11" x="74.59" y="52.99" width="15.09" height="2.66"/><rect class="cls-11" x="74.59" y="60.47" width="15.09" height="2.66"/></g><ellipse id="椭圆形-5" data-name="椭圆形" class="cls-4" cx="55.87" cy="58.21" rx="16.18" ry="16.19"/><g id="路径-33" data-name="路径"><path class="cls-12" d="M43.93,60.61a1,1,0,0,0,.86-1.08,10,10,0,0,1-.08-1.35,1,1,0,0,0-2,0,13.82,13.82,0,0,0,.09,1.58,1,1,0,0,0,1,.86Z"/><path class="cls-12" d="M46.61,64.45A11.37,11.37,0,0,1,45.4,62.1a1,1,0,1,0-1.82.67A13.55,13.55,0,0,0,45,65.53a1,1,0,0,0,.81.43,1,1,0,0,0,.54-.16A1,1,0,0,0,46.61,64.45Z"/><path class="cls-12" d="M59.88,47.64a10.89,10.89,0,0,1,2.35,1.21,1,1,0,0,0,.54.16,1,1,0,0,0,.54-1.78,13.51,13.51,0,0,0-2.75-1.42,1,1,0,0,0-.68,1.83Z"/><path class="cls-12" d="M65.78,52.71a1,1,0,0,0,.85.5,1,1,0,0,0,.47-.12,1,1,0,0,0,.38-1.32,13.29,13.29,0,0,0-1.82-2.51,1,1,0,1,0-1.43,1.31A11.22,11.22,0,0,1,65.78,52.71Z"/><path class="cls-12" d="M66.78,55.15a11,11,0,0,1,.41,2.61,1,1,0,0,0,1,.94h0a1,1,0,0,0,.93-1,13.26,13.26,0,0,0-.47-3.06,1,1,0,0,0-1.88.52Z"/><path class="cls-12" d="M55.51,69.43A11.46,11.46,0,0,1,52.9,69a1,1,0,0,0-.53,1.87,13.27,13.27,0,0,0,3.06.48h0a1,1,0,0,0,1-.93A1,1,0,0,0,55.51,69.43Z"/><path class="cls-12" d="M60.65,68.41a11,11,0,0,1-2.51.81,1,1,0,0,0,.19,1.93.62.62,0,0,0,.19,0,13.2,13.2,0,0,0,2.95-.95,1,1,0,0,0,.47-1.29A1,1,0,0,0,60.65,68.41Z"/><path class="cls-12" d="M66.14,65a1,1,0,0,0-1.36.16A11.47,11.47,0,0,1,62.9,67a1,1,0,0,0-.16,1.36,1,1,0,0,0,1.37.17,13.34,13.34,0,0,0,2.19-2.19A1,1,0,0,0,66.14,65Z"/><path class="cls-12" d="M68.12,59.64A1,1,0,0,0,67,60.4a11,11,0,0,1-.82,2.51,1,1,0,0,0,.47,1.29,1,1,0,0,0,.41.09,1,1,0,0,0,.88-.56,13.25,13.25,0,0,0,1-2.95A1,1,0,0,0,68.12,59.64Z"/><path class="cls-12" d="M50.46,68a11.6,11.6,0,0,1-2.13-1.55A1,1,0,1,0,47,67.89a13.55,13.55,0,0,0,2.5,1.82,1,1,0,0,0,.48.12A1,1,0,0,0,50.46,68Z"/><path class="cls-12" d="M56,46.93a11.9,11.9,0,0,1,1.34.08h.12a1,1,0,0,0,.11-1.94A13.64,13.64,0,0,0,56,45a1,1,0,1,0,0,1.94Z"/><path class="cls-12" d="M58.62,53.71a.73.73,0,0,0-.89.52l-2.11,8a.72.72,0,0,0,.52.89.57.57,0,0,0,.18,0A.74.74,0,0,0,57,62.6l2.11-8A.73.73,0,0,0,58.62,53.71Z"/><path class="cls-12" d="M48,59.23l4.85,3a.67.67,0,0,0,.38.11.7.7,0,0,0,.62-.35.72.72,0,0,0-.24-1l-3.79-2.31,4-2.28a.72.72,0,0,0,.28-1,.73.73,0,0,0-1-.27L48,58a.73.73,0,0,0,0,1.26Z"/><path class="cls-12" d="M60.35,61.69a.69.69,0,0,0,.63.36.68.68,0,0,0,.36-.1l4.58-2.66a.72.72,0,0,0,.37-.63.75.75,0,0,0-.35-.63l-4.5-2.74a.73.73,0,0,0-.75,1.25l3.44,2.1-3.52,2A.73.73,0,0,0,60.35,61.69Z"/></g></g><g id="编组-3" data-name="编组"><polyline id="路径-34" data-name="路径" class="cls-13" points="51.8 107.34 65.76 101.75 91.59 106.21 113.12 82.64"/><ellipse id="椭圆形-6" data-name="椭圆形" class="cls-14" cx="51.11" cy="107.75" rx="2.56" ry="2.56"/><ellipse id="椭圆形-7" data-name="椭圆形" class="cls-14" cx="65.59" cy="101.98" rx="2.56" ry="2.56"/><ellipse id="椭圆形-8" data-name="椭圆形" class="cls-14" cx="91.53" cy="106.57" rx="2.56" ry="2.56"/><ellipse id="椭圆形-9" data-name="椭圆形" class="cls-14" cx="112.69" cy="82.77" rx="2.56" ry="2.56"/></g><g id="编组-4" data-name="编组"><path id="路径-35" data-name="路径" class="cls-15" d="M165.4,131.22H110.9a2,2,0,0,1-2-2V36a2,2,0,0,1,2-2h54.5a2,2,0,0,1,2,2v93.18A2,2,0,0,1,165.4,131.22Z"/><path id="路径-36" data-name="路径" class="cls-10" d="M163.39,127.5H112.91a1,1,0,0,1-1-1V38.72a1,1,0,0,1,1-1h50.48a1,1,0,0,1,1,1v87.79A1,1,0,0,1,163.39,127.5Z"/><path id="路径-37" data-name="路径" class="cls-16" d="M164.38,75.08H111.92V38.72a1,1,0,0,1,1-1h50.48a1,1,0,0,1,1,1V75.08Z"/><circle id="椭圆形-10" data-name="椭圆形" class="cls-10" cx="132.41" cy="40.6" r="1.12"/><path id="路径-38" data-name="路径" class="cls-10" d="M134.91,41.48H145a.18.18,0,0,0,.18-.18V39.71a.18.18,0,0,0-.18-.17H134.91a.18.18,0,0,0-.18.17V41.3A.18.18,0,0,0,134.91,41.48Z"/><path id="路径-39" data-name="路径" class="cls-9" d="M159.74,90.78h-43a.36.36,0,0,1-.36-.37v-5a.37.37,0,0,1,.36-.37h43a.38.38,0,0,1,.37.37v5A.37.37,0,0,1,159.74,90.78Z"/><path id="路径-40" data-name="路径" class="cls-9" d="M141.85,100.87H116.72a.37.37,0,0,1-.36-.37v-5a.36.36,0,0,1,.36-.37h25.13a.36.36,0,0,1,.37.37v5A.37.37,0,0,1,141.85,100.87Z"/><path id="路径-41" data-name="路径" class="cls-9" d="M141.85,111H116.72a.36.36,0,0,1-.36-.37v-5a.37.37,0,0,1,.36-.37h25.13a.37.37,0,0,1,.37.37v5A.36.36,0,0,1,141.85,111Z"/><path id="路径-42" data-name="路径" class="cls-4" d="M160.1,124.2H116.72a.36.36,0,0,1-.36-.37v-9a.37.37,0,0,1,.36-.37H160.1a.38.38,0,0,1,.37.37v9A.37.37,0,0,1,160.1,124.2Z"/><path id="路径-43" data-name="路径" class="cls-17" d="M192.69,108.29H153.6a1.25,1.25,0,0,1-1.25-1.24V84.78a1.24,1.24,0,0,1,1.25-1.24h39.09a1.24,1.24,0,0,1,1.25,1.24v22.27A1.25,1.25,0,0,1,192.69,108.29Z"/><path id="路径-44" data-name="路径" class="cls-8" d="M157.7,82.48H89.5a1.32,1.32,0,0,1-1.32-1.31V49a1.32,1.32,0,0,1,1.32-1.32h68.2A1.32,1.32,0,0,1,159,49V81.17A1.32,1.32,0,0,1,157.7,82.48Z"/><path id="路径-45" data-name="路径" class="cls-10" d="M154.78,79.84H89.5a1.32,1.32,0,0,1-1.32-1.32V48.88a1.31,1.31,0,0,1,1.32-1.31h65.28a1.3,1.3,0,0,1,1.31,1.31V78.52A1.32,1.32,0,0,1,154.78,79.84Z"/><path id="路径-46" data-name="路径" class="cls-10" d="M160.06,90.73H186a.19.19,0,0,0,.19-.19V88.82a.18.18,0,0,0-.19-.19H160.06a.19.19,0,0,0-.19.19v1.72A.2.2,0,0,0,160.06,90.73Z"/><path id="路径-47" data-name="路径" class="cls-10" d="M160.06,96.77H186a.19.19,0,0,0,.19-.19V94.86a.18.18,0,0,0-.19-.19H160.06a.19.19,0,0,0-.19.19v1.72A.2.2,0,0,0,160.06,96.77Z"/><path id="路径-48" data-name="路径" class="cls-10" d="M160.06,103.12h19.66a.19.19,0,0,0,.19-.19v-1.72a.2.2,0,0,0-.19-.19H160.06a.2.2,0,0,0-.19.19v1.72A.19.19,0,0,0,160.06,103.12Z"/><path id="路径-49" data-name="路径" class="cls-4" d="M151.45,58.28H121.26a.19.19,0,0,1-.19-.19V56.4a.19.19,0,0,1,.19-.19h30.19a.19.19,0,0,1,.19.19v1.69A.18.18,0,0,1,151.45,58.28Z"/><path id="路径-50" data-name="路径" class="cls-4" d="M151.45,64.44H121.26a.2.2,0,0,1-.19-.19V62.56a.18.18,0,0,1,.19-.19h30.19a.18.18,0,0,1,.19.19v1.69A.19.19,0,0,1,151.45,64.44Z"/><path id="路径-51" data-name="路径" class="cls-4" d="M140.57,70.62H121.26a.19.19,0,0,1-.19-.19V68.74a.19.19,0,0,1,.19-.19h19.31a.19.19,0,0,1,.19.19v1.69A.18.18,0,0,1,140.57,70.62Z"/></g></g><g id="编组-7"><path id="路径-52" data-name="路径" class="cls-8" d="M16.22,108.78a2,2,0,0,0-2.18.53l-.81-.13.94-4.77L2.51,101.85,0,113.44l5,1-.13.79a2,2,0,0,0-1.4,1.25,2,2,0,1,0,3.18-.86l.14-.82,5.14,1,.9-4.59.82.14a2.06,2.06,0,0,0,1.21,1.19,2,2,0,1,0,1.37-3.77Z"/><path id="路径-53" data-name="路径" class="cls-18" d="M15.68,108.12a1.93,1.93,0,0,0-2.07.5l-.78-.12.9-4.54-11.1-2.44-2.39,11,4.75.94-.12.75a1.91,1.91,0,1,0,2.29,2.51,1.91,1.91,0,0,0-.6-2.13l.14-.79,4.9,1,.85-4.37.79.13a1.91,1.91,0,1,0,2.44-2.45Z"/><path id="路径-54" data-name="路径" class="cls-8" d="M29.89,109.85,29,109.2l-4-.07.1-.89a2.09,2.09,0,1,0-2.65-2.68,2.09,2.09,0,0,0,.66,2.37l-.13.91-5.22-.76-.62,5.17.78,0a2,2,0,0,1,2-.61,2,2,0,0,1,1.55,2.44,2,2,0,0,1-2.24,1.6,1.85,1.85,0,0,1-1.75-1.27c-.41,0-.89,0-.89,0l-.77,4.5,12.35,2Z"/><path id="路径-55" data-name="路径" class="cls-16" d="M29.2,109.28l-4.56-.67.09-.82a1.93,1.93,0,1,0-1.84-.3l-.12.84-4.85-.72-.56,4.74.73,0a1.85,1.85,0,0,1,1.88-.55,1.88,1.88,0,0,1,1.45,2.25,1.79,1.79,0,0,1-2.07,1.46,1.73,1.73,0,0,1-1.63-1.17c-.38,0-.82-.05-.82-.05l-.65,4.56,11.47,1.88Z"/></g></g></g></svg>