<svg xmlns="http://www.w3.org/2000/svg" xmlns:xlink="http://www.w3.org/1999/xlink" viewBox="0 0 197.85 145.8"><defs><style>.cls-1{fill:none;}.cls-2{clip-path:url(#clip-path);}.cls-3{clip-path:url(#clip-path-2);}.cls-4{fill:#fff;}.cls-5{clip-path:url(#clip-path-3);}.cls-6{fill:#2355f5;}.cls-7{clip-path:url(#clip-path-5);}.cls-8{clip-path:url(#clip-path-7);}</style><clipPath id="clip-path" transform="translate(9.82 9.82)"><path class="cls-1" d="M145.17.55,6,51.21A9.08,9.08,0,0,0,.55,62.84l19.09,52.44A14.3,14.3,0,0,0,38,123.83L172.25,75a9.07,9.07,0,0,0,5.42-11.62L156.79,6A9.06,9.06,0,0,0,145.17.55Z"/></clipPath><clipPath id="clip-path-2" transform="translate(9.82 9.82)"><rect class="cls-1" x="-1140.27" y="-427.48" width="2176.73" height="1224.41"/></clipPath><clipPath id="clip-path-3" transform="translate(9.82 9.82)"><path class="cls-1" d="M58.1,76.14l8.61-.48A15.31,15.31,0,0,1,66.23,82a11.46,11.46,0,0,1-3,4.82,16.7,16.7,0,0,1-5.93,3.42,19.64,19.64,0,0,1-8.12,1.41,12.8,12.8,0,0,1-6.85-2.91,17.26,17.26,0,0,1-5.33-8q-2.58-7.11-.19-12.3t9.3-7.7q5.41-2,9.3-.91a13.64,13.64,0,0,1,7.05,5L55.31,69.5a7.17,7.17,0,0,0-1.56-1.6,5.29,5.29,0,0,0-2.38-.9A5.92,5.92,0,0,0,45,71.42a10.84,10.84,0,0,0,.84,6.08q1.73,4.75,3.82,6a5.26,5.26,0,0,0,4.7.29A5.29,5.29,0,0,0,57.72,81,9.3,9.3,0,0,0,58.1,76.14Z"/></clipPath><clipPath id="clip-path-5" transform="translate(9.82 9.82)"><path class="cls-1" d="M69.43,74.57,77.65,71a6.89,6.89,0,0,0,2.25,2.71,5,5,0,0,0,4.54.32,4.59,4.59,0,0,0,2.6-2,2.85,2.85,0,0,0,.27-2.43A2.79,2.79,0,0,0,85.61,68q-1.29-.52-5.13,0-6.3.81-9.57-.46A7.41,7.41,0,0,1,66.4,62.9a8,8,0,0,1-.24-4.63,9,9,0,0,1,2.72-4.49,19.24,19.24,0,0,1,6.63-3.69q5.49-2,9.12-1a9.38,9.38,0,0,1,5.79,5.25l-8.16,3.52a4.15,4.15,0,0,0-5.68-2.11,3.78,3.78,0,0,0-2.09,1.5,2.15,2.15,0,0,0-.2,1.88,1.66,1.66,0,0,0,1.09,1,7.73,7.73,0,0,0,3.35,0A39.66,39.66,0,0,1,88,59.6a9.23,9.23,0,0,1,4.81,1.85,8.62,8.62,0,0,1,2.69,3.82,9.66,9.66,0,0,1,.32,5.63,10.1,10.1,0,0,1-3,5.08,18.27,18.27,0,0,1-6.44,3.7q-7.31,2.66-11.15.87A11.74,11.74,0,0,1,69.43,74.57Z"/></clipPath><clipPath id="clip-path-7" transform="translate(9.82 9.82)"><path class="cls-1" d="M98.31,64.05l8.23-3.59a6.76,6.76,0,0,0,2.25,2.72,5,5,0,0,0,4.54.32,4.59,4.59,0,0,0,2.59-2,2.82,2.82,0,0,0,.28-2.43,2.77,2.77,0,0,0-1.7-1.63q-1.31-.52-5.14,0-6.28.81-9.56-.45a7.45,7.45,0,0,1-4.52-4.62,8,8,0,0,1-.23-4.63,9,9,0,0,1,2.72-4.49,19.08,19.08,0,0,1,6.63-3.69q5.49-2,9.11-1a9.38,9.38,0,0,1,5.8,5.25l-8.17,3.52a4.76,4.76,0,0,0-2.42-2.3,4.7,4.7,0,0,0-3.26.19,3.79,3.79,0,0,0-2.08,1.5,2.1,2.1,0,0,0-.2,1.87,1.7,1.7,0,0,0,1.08,1,7.57,7.57,0,0,0,3.35,0,39.71,39.71,0,0,1,9.24-.49,9.3,9.3,0,0,1,4.8,1.84,8.55,8.55,0,0,1,2.69,3.83,9.57,9.57,0,0,1,.32,5.63,10.16,10.16,0,0,1-3,5.08,18.47,18.47,0,0,1-6.46,3.71q-7.31,2.66-11.15.87A11.88,11.88,0,0,1,98.31,64.05Z"/></clipPath></defs><g id="图层_2" data-name="图层 2"><g id="图层_1-2" data-name="图层 1"><g class="cls-2"><g class="cls-3"><rect class="cls-4" x="0.31" y="17.83" width="177.61" height="90.51" transform="translate(-6.38 44.1) rotate(-20)"/></g></g><g class="cls-5"><g class="cls-3"><rect class="cls-6" x="30.48" y="54.37" width="40.99" height="42.86" transform="matrix(0.94, -0.34, 0.34, 0.94, -13.03, 31.83)"/></g></g><g class="cls-7"><g class="cls-3"><rect class="cls-6" x="61.16" y="43.55" width="38.98" height="42.87" transform="translate(-7.55 41.32) rotate(-20)"/></g></g><g class="cls-8"><g class="cls-3"><rect class="cls-6" x="90.05" y="33.04" width="38.97" height="42.88" transform="translate(-2.21 50.57) rotate(-20)"/></g></g></g></g></svg>