<svg xmlns="http://www.w3.org/2000/svg" viewBox="0 0 145.38 81.02"><defs><style>.cls-1{fill:#97bff7;}.cls-2{fill:#ec6639;}.cls-3{fill:#fff;}</style></defs><g id="图层_2" data-name="图层 2"><g id="图层_1-2" data-name="图层 1"><g id="页面-1"><g id="CTIN-Design-首页"><g id="插画"><g id="HTML"><path id="Path_159" data-name="Path 159" class="cls-1" d="M0,33.51,127.69,8.15l17.69,41.66S18.27,74.48,16.88,81C17.34,81.93,0,33.51,0,33.51Z"/><polygon id="Path_160" data-name="Path 160" class="cls-2" points="1.38 28.07 126.2 0 142.21 43.46 19.9 77.74 1.38 28.07"/><g id="Group_62" data-name="Group 62"><polygon id="Path_161" data-name="Path 161" class="cls-3" points="18.78 40.27 25.71 38.37 28.57 46.4 36.13 44.33 33.28 36.3 40.24 34.39 48.39 57.34 41.44 59.25 38.13 49.97 30.57 52.04 33.87 61.33 26.94 63.23 18.78 40.27"/><polygon id="Path_162" data-name="Path 162" class="cls-3" points="43.26 33.56 64.32 27.78 66.33 33.45 59.27 35.39 65.41 52.68 58.48 54.58 52.34 37.29 45.28 39.23 43.26 33.56"/><polygon id="Path_163" data-name="Path 163" class="cls-3" points="67.38 26.95 76.49 24.45 84.96 37.45 83.49 22.52 92.59 20.02 100.75 42.98 95.07 44.53 88.85 27.02 90.7 45.73 85.57 47.14 74.98 30.83 81.2 48.34 75.53 49.89 67.38 26.95"/><polygon id="Path_164" data-name="Path 164" class="cls-3" points="97.01 18.82 103.94 16.92 110.09 34.22 120.9 31.25 122.91 36.91 105.17 41.77 97.01 18.82"/></g></g></g></g></g></g></g></svg>